<svg xmlns="http://www.w3.org/2000/svg" xmlns:xlink="http://www.w3.org/1999/xlink" version="1.1" x="0px" y="0px" viewBox="0 0 100 125" style="enable-background:new 0 0 100 100;" xml:space="preserve"><path d="M84.4541016,22.0639648H15.5454102c-4.9624023,0-9,4.0375977-9,9v37.871582c0,4.9628906,4.0375977,9,9,9h68.9086914  c4.9628906,0,9-4.0371094,9-9v-37.871582C93.4541016,26.1015625,89.4169922,22.0639648,84.4541016,22.0639648z   M15.5454102,24.0639648h68.9086914c3.859375,0,7,3.1401367,7,7v3.2115479L56.0869141,51.1474609  c-3.8251953,1.8222656-8.2124023,1.8261719-12.0395508,0.0068359L8.5454102,34.274353v-3.2103882  C8.5454102,27.2041016,11.6855469,24.0639648,15.5454102,24.0639648z M84.4541016,75.9355469H15.5454102  c-3.8598633,0-7-3.140625-7-7V36.4891357l34.6435547,16.4718018c2.1835938,1.0380859,4.5273438,1.5566406,6.8706055,1.5566406  c2.3496094,0,4.7001953-0.5214844,6.8886719-1.5654297l34.5058594-16.4610596v32.444458  C91.4541016,72.7949219,88.3134766,75.9355469,84.4541016,75.9355469z"/><text x="0" y="115" fill="#000000" font-size="5px" font-weight="bold" font-family="'Helvetica Neue', Helvetica, Arial-Unicode, Arial, Sans-serif">Created by Brad</text><text x="0" y="120" fill="#000000" font-size="5px" font-weight="bold" font-family="'Helvetica Neue', Helvetica, Arial-Unicode, Arial, Sans-serif">from the Noun Project</text></svg>