<svg xmlns="http://www.w3.org/2000/svg" version="1.1" viewBox="-5.0 -10.0 110.0 135.0">
 <path d="m50.777 9.5117c8.3359 0.15625 16.059 2.8359 22.434 7.3008l-0.94141-5.3086c-0.23828-1.3594 0.67188-2.6523 2.0312-2.8906s2.6523 0.67188 2.8906 2.0312l2 11.297c5.4531 5.6719 9.2734 12.926 10.695 21.008l3.082-4.4102c0.78516-1.1289 2.3398-1.4023 3.4688-0.61328 1.1289 0.78516 1.4023 2.3398 0.61328 3.4688l-6.5586 9.3828c-0.15234 8.3359-2.8242 16.059-7.2891 22.438l5.2969-0.9375c1.3594-0.23828 2.6523 0.67188 2.8906 2.0312s-0.67188 2.6523-2.0312 2.8906l-11.27 1.9961c-5.6719 5.4648-12.934 9.2891-21.02 10.711l4.4023 3.0742c1.1289 0.78516 1.4023 2.3398 0.61328 3.4688-0.78516 1.1289-2.3398 1.4023-3.4688 0.61328l-9.3711-6.5508c-8.3438-0.15234-16.066-2.8281-22.449-7.2969l0.9375 5.293c0.23828 1.3594-0.67188 2.6523-2.0312 2.8906-1.3594 0.23828-2.6523-0.67188-2.8906-2.0312l-1.9961-11.27c-5.4609-5.6719-9.2812-12.938-10.703-21.027l-3.082 4.4062c-0.78516 1.1289-2.3398 1.4023-3.4688 0.61328-1.1289-0.78516-1.4023-2.3398-0.61328-3.4688l6.5586-9.3828c0.15625-8.3398 2.8359-16.062 7.3008-22.438l-5.3086 0.9375c-1.3594 0.23828-2.6523-0.67188-2.8906-2.0312s0.67188-2.6523 2.0312-2.8906l11.289-2c5.6719-5.457 12.934-9.2773 21.02-10.695l-4.418-3.0859c-1.1289-0.78516-1.4023-2.3398-0.61328-3.4688 0.78516-1.1289 2.3398-1.4023 3.4688-0.61328l9.3945 6.5625zm-0.77734 20.043c5.6445 0 10.758 2.2891 14.461 5.9922 3.6992 3.6992 5.9922 8.8125 5.9922 14.461 0 5.6445-2.2891 10.758-5.9922 14.461-3.6992 3.6992-8.8125 5.9922-14.461 5.9922-5.6445 0-10.762-2.2891-14.461-5.9922-3.6992-3.6992-5.9922-8.8125-5.9922-14.461 0-5.6445 2.2891-10.758 5.9922-14.461 3.6992-3.6992 8.8125-5.9922 14.461-5.9922zm10.926 9.5234c-2.793-2.793-6.6562-4.5234-10.926-4.5234-4.2656 0-8.1328 1.7305-10.926 4.5234s-4.5234 6.6562-4.5234 10.926c0 4.2656 1.7305 8.1328 4.5234 10.926 2.793 2.793 6.6602 4.5234 10.926 4.5234s8.1328-1.7305 10.926-4.5234c2.793-2.793 4.5234-6.6562 4.5234-10.926 0-4.2656-1.7305-8.1328-4.5234-10.926zm-36.391-2.6328c-0.11328 1.375-1.3203 2.3984-2.6953 2.2812-1.375-0.11328-2.3984-1.3203-2.2812-2.6953l0.41406-4.9766c-3.3125 5.2422-5.293 11.414-5.4609 18.031l7.8984 9.332c0.88672 1.0508 0.75781 2.625-0.29297 3.5156-1.0508 0.88672-2.625 0.75781-3.5156-0.29297l-3.2383-3.8281c1.4297 6.3555 4.5586 12.066 8.8906 16.629l12.199 1.0156c1.375 0.11328 2.3984 1.3203 2.2812 2.6953-0.11328 1.375-1.3203 2.3984-2.6953 2.2812l-5-0.41797c5.2422 3.3164 11.422 5.3008 18.047 5.4688l9.3438-7.9062c1.0508-0.88672 2.625-0.75781 3.5156 0.29297 0.88672 1.0508 0.75781 2.625-0.29297 3.5156l-3.8398 3.25c6.3594-1.4297 12.074-4.5625 16.637-8.8984l1.0156-12.199c0.11328-1.375 1.3203-2.3984 2.6953-2.2812 1.375 0.11328 2.3984 1.3203 2.2812 2.6953l-0.41406 4.9961c3.3164-5.2461 5.2969-11.426 5.4609-18.051l-7.8984-9.332c-0.88672-1.0508-0.75781-2.625 0.29297-3.5156 1.0508-0.88672 2.625-0.75781 3.5156 0.29297l3.2383 3.8203c-1.4297-6.3555-4.5664-12.062-8.8984-16.621l-12.18-1.0117c-1.375-0.11328-2.3984-1.3203-2.2812-2.6953 0.11328-1.375 1.3203-2.3984 2.6953-2.2812l4.9727 0.41016c-5.2422-3.3125-11.418-5.2891-18.043-5.4531l-9.3242 7.8945c-1.0508 0.88672-2.625 0.75781-3.5156-0.29297-0.88672-1.0508-0.75781-2.625 0.29297-3.5156l3.8164-3.2305c-6.3555 1.4297-12.059 4.5625-16.617 8.8945l-1.0156 12.184z"/>
<text x="0.0" y="117.5" font-size="5.0" font-weight="bold" font-family="Arbeit Regular, Helvetica, Arial-Unicode, Arial, Sans-serif" fill="#000000">Created by bhusana project</text><text x="0.0" y="122.5" font-size="5.0" font-weight="bold" font-family="Arbeit Regular, Helvetica, Arial-Unicode, Arial, Sans-serif" fill="#000000">from Noun Project</text></svg>