<svg xmlns="http://www.w3.org/2000/svg" xmlns:svg="http://www.w3.org/2000/svg" id="svg2187" xml:space="preserve" width="682.66669" height="682.66669" viewBox="0 0 682.66669 682.66669" xmlns:xlink="http://www.w3.org/1999/xlink"><defs id="defs2191"><clipPath clipPathUnits="userSpaceOnUse" id="clipPath2201"><path d="M 0,512 H 512 V 0 H 0 Z" id="path2199"></path></clipPath></defs><g id="g2193" transform="matrix(1.3333333,0,0,-1.3333333,0,682.66667)"><g id="g2195"><g id="g2197" clip-path="url(#clipPath2201)"><g id="g2203" transform="translate(410,504.5)"><path d="m 0,0 h -147.948 c -11.045,0 -20,-8.954 -20,-20 v -101.329" style="fill:none;stroke:#000000;stroke-width:15;stroke-linecap:round;stroke-linejoin:round;stroke-miterlimit:10;stroke-dasharray:none;stroke-opacity:1" id="path2205"></path></g><g id="g2207" transform="translate(271.0518,300.1528)"><path d="m 0,0 h 152.378 l 38.311,-38.312 V 0 h 22.759 c 11.046,0 20,8.954 20,20 v 164.347 c 0,11.046 -8.954,20 -20,20 h -31.814" style="fill:none;stroke:#000000;stroke-width:15;stroke-linecap:round;stroke-linejoin:round;stroke-miterlimit:10;stroke-dasharray:none;stroke-opacity:1" id="path2209"></path></g><g id="g2211" transform="translate(337.2217,421.9761)"><path d="m 0,0 c 7.833,0 14.901,4.702 17.928,11.927 l 19.643,36.891 c 10.847,0 19.639,-8.793 19.639,-19.639 v -17.2 c 0,-5.905 4.788,-10.693 10.693,-10.693 h 29.002 c 8.683,0 15.126,-8.051 13.223,-16.523 L 96.489,-66.855 C 94.681,-73.701 88.487,-78.471 81.406,-78.471 H 17.809 c -7.289,0 -11.593,2.015 -17.809,5.823 z" style="fill:none;stroke:#000000;stroke-width:15;stroke-linecap:round;stroke-linejoin:round;stroke-miterlimit:10;stroke-dasharray:none;stroke-opacity:1" id="path2213"></path></g><g id="g2215" transform="translate(326.3535,334.2622)"><path d="m 0,0 h -12.618 c -6.002,0 -10.868,4.866 -10.868,10.869 v 75.689 c 0,6.002 4.866,10.868 10.868,10.868 H 0 c 6.002,0 10.868,-4.866 10.868,-10.868 V 10.869 C 10.868,4.866 6.002,0 0,0 Z" style="fill:none;stroke:#000000;stroke-width:15;stroke-linecap:round;stroke-linejoin:round;stroke-miterlimit:10;stroke-dasharray:none;stroke-opacity:1" id="path2217"></path></g><g id="g2219" transform="translate(158.1533,178.8237)"><path d="m 0,0 h -69.583 l -38.312,-38.312 V 0 h -22.758 c -11.046,0 -20,8.954 -20,20 v 164.347 c 0,11.046 8.954,20 20,20 H 91.795 c 11.045,0 20,-8.954 20,-20 V 71.335" style="fill:none;stroke:#000000;stroke-width:15;stroke-linecap:round;stroke-linejoin:round;stroke-miterlimit:10;stroke-dasharray:none;stroke-opacity:1" id="path2221"></path></g><g id="g2223" transform="translate(106.7334,228.9687)"><path d="m 0,0 c 17.017,-11.296 31.983,-17.115 31.983,-17.115 0,0 8.237,3.201 19.437,9.464" style="fill:none;stroke:#000000;stroke-width:15;stroke-linecap:round;stroke-linejoin:round;stroke-miterlimit:10;stroke-dasharray:none;stroke-opacity:1" id="path2225"></path></g><g id="g2227" transform="translate(196.335,250.1567)"><path d="M 0,0 C 12.863,13.609 22.776,30.731 22.778,51.182 22.78,75.029 3.751,94.362 -19.724,94.364 -36.261,94.365 -50.582,84.766 -57.609,70.76 -64.635,84.767 -78.955,94.368 -95.492,94.37 -118.967,94.371 -137.998,75.041 -138,51.194 c -0.002,-18.104 7.765,-33.601 18.471,-46.362" style="fill:none;stroke:#000000;stroke-width:15;stroke-linecap:round;stroke-linejoin:round;stroke-miterlimit:10;stroke-dasharray:none;stroke-opacity:1" id="path2229"></path></g><g id="g2231" transform="translate(400.6016,250.1587)"><path d="m 0,0 h -222.448 c -11.046,0 -20,-8.955 -20,-20 v -164.347 c 0,-11.046 8.954,-20 20,-20 H -61.07 l 38.311,-38.312 v 38.312 H 0 c 11.045,0 20,8.954 20,20 L 20,-20 C 20,-8.955 11.045,0 0,0 Z" style="fill:none;stroke:#000000;stroke-width:15;stroke-linecap:round;stroke-linejoin:round;stroke-miterlimit:10;stroke-dasharray:none;stroke-opacity:1" id="path2233"></path></g><g id="g2235" transform="translate(243.7939,145.9146)"><path d="m 0,0 c 0,-10.541 -8.545,-19.085 -19.085,-19.085 -10.541,0 -19.086,8.544 -19.086,19.085 0,10.541 8.545,19.085 19.086,19.085 C -8.545,19.085 0,10.541 0,0 Z" style="fill:none;stroke:#000000;stroke-width:15;stroke-linecap:round;stroke-linejoin:round;stroke-miterlimit:10;stroke-dasharray:none;stroke-opacity:1" id="path2237"></path></g><g id="g2239" transform="translate(308.4629,145.9146)"><path d="m 0,0 c 0,-10.541 -8.545,-19.085 -19.086,-19.085 -10.54,0 -19.085,8.544 -19.085,19.085 0,10.541 8.545,19.085 19.085,19.085 C -8.545,19.085 0,10.541 0,0 Z" style="fill:none;stroke:#000000;stroke-width:15;stroke-linecap:round;stroke-linejoin:round;stroke-miterlimit:10;stroke-dasharray:none;stroke-opacity:1" id="path2241"></path></g><g id="g2243" transform="translate(373.1309,145.9146)"><path d="m 0,0 c 0,-10.541 -8.545,-19.085 -19.085,-19.085 -10.541,0 -19.086,8.544 -19.086,19.085 0,10.541 8.545,19.085 19.086,19.085 C -8.545,19.085 0,10.541 0,0 Z" style="fill:none;stroke:#000000;stroke-width:15;stroke-linecap:round;stroke-linejoin:round;stroke-miterlimit:10;stroke-dasharray:none;stroke-opacity:1" id="path2245"></path></g></g></g></g></svg>